<svg width="38" height="45" viewBox="0 0 38 45" fill="none" xmlns="http://www.w3.org/2000/svg">
<path d="M11.3668 0.330735C14.2269 0.684565 17.0054 2.28676 19.1064 4.90312C21.2076 7.51948 22.4541 10.8724 22.5428 14.2471C22.6361 17.4587 21.764 20.4247 19.9887 22.6037L28.8865 33.6271C29.2691 33.2029 29.738 32.9987 30.2465 33.0133C30.7555 33.0278 31.2578 33.2598 31.6155 33.7052L36.7105 40.1054C37.0682 40.5508 37.2362 41.1539 37.2191 41.7513C37.202 42.3492 36.9998 42.9414 36.6172 43.3656L35.9955 44.0549C35.6129 44.4791 35.0977 44.682 34.5892 44.6674C34.0802 44.6529 33.5779 44.4209 33.2202 43.9755L28.124 37.6297C27.4086 36.7389 27.4043 35.2705 28.1695 34.422L19.3194 23.3458C17.5087 25.143 15.2618 26.0034 12.9025 25.9359C9.89582 25.8498 6.74565 24.2913 4.37818 21.2866C2.27702 18.6703 1.0305 15.3173 0.941827 11.9427C0.808462 8.51278 1.86873 5.44294 3.8307 3.2149C5.74633 0.985523 8.46064 -0.024272 11.367 0.330397L11.3668 0.330735ZM28.7946 36.8326L33.9355 43.2341C34.3379 43.7352 34.9853 43.7537 35.4157 43.2764L36.0374 42.5871C36.2287 42.375 36.3768 42.0528 36.3861 41.7267C36.3955 41.4006 36.3123 41.0718 36.0872 40.8478L30.9447 34.5012C30.7658 34.2785 30.4929 34.1075 30.2153 34.0995C29.9377 34.0916 29.6569 34.1923 29.4641 34.4588L28.8424 35.1481C28.4139 35.571 28.3906 36.3859 28.7946 36.8326ZM1.83762 11.37L3.36758 9.67352L2.20537 8.22635C1.94605 9.19763 1.824 10.2277 1.83762 11.37ZM2.67045 16.2342L3.19651 15.6509L2.12375 14.3151C2.29015 14.9726 2.45657 15.6298 2.67045 16.2342ZM7.34586 22.7311L8.15886 21.8296L6.32602 19.5474L5.22646 20.7666C5.89988 21.4935 6.62109 22.1664 7.34586 22.7311ZM16.2873 24.1293C17.1773 23.774 17.9806 23.1986 18.6964 22.458L16.5505 19.786L14.5901 21.9596L16.2873 24.1293ZM20.9254 18.9865L19.2267 16.8712L17.2663 19.0449L19.3656 21.7156C20.0366 20.9188 20.5258 20.0085 20.9254 18.9865ZM20.6408 9.5151L20.067 10.1514L21.2739 11.6543C21.1109 10.8885 20.8998 10.1752 20.6408 9.5151ZM15.8223 3.17726L15.1528 3.91965L16.9856 6.20189L17.9895 5.08874C17.3161 4.36232 16.593 3.74327 15.8223 3.17726ZM4.79214 3.56874L6.6697 5.90667L8.63006 3.73299L7.19962 1.95181C6.35627 2.30844 5.5526 2.88338 4.79214 3.56874ZM7.34042 6.74185L9.17325 9.0241L11.1336 6.85041L9.30078 4.56817L7.34042 6.74185ZM16.0957 13.0291L14.2628 10.7469L12.3025 12.9206L14.1353 15.2028L16.0957 13.0291ZM14.7612 15.9819L16.6388 18.3198L18.6007 16.0918L16.7678 13.8095L14.7612 15.9819ZM13.6387 9.91305L11.8059 7.6308L9.84554 9.80449L11.6784 12.0867L13.6387 9.91305ZM11.6333 13.6626L9.67292 15.8363L11.5042 18.1729L13.4646 15.9992L11.6333 13.6626ZM10.961 12.8822L9.12819 10.6L7.16783 12.7737L9.00067 15.0559L10.961 12.8822ZM8.50375 9.76611L6.67091 7.48386L4.71055 9.65755L6.54339 11.9398L8.50375 9.76611ZM11.8495 6.10934L13.8098 3.93565L11.977 1.65341L10.0167 3.8271L11.8495 6.10934ZM14.4806 3.13887L14.9588 2.60859C14.5039 2.32359 14 2.14598 13.5436 1.91533L14.4806 3.13887ZM14.4355 4.71503L12.4751 6.88872L14.308 9.17096L16.2683 6.99728L14.4355 4.71503ZM14.9339 9.95003L16.7668 12.2323L18.7734 10.0599L16.9406 7.77766L14.9339 9.95003ZM17.4375 13.0675L19.2703 15.3497L21.2307 13.176L19.3979 10.8938L17.4375 13.0675ZM21.6157 14.2745L21.6173 14.2202L19.896 16.1288L21.237 17.7986C21.5457 16.7199 21.6725 15.5273 21.6157 14.2745ZM15.9231 19.0608L14.0903 16.7786L12.1299 18.9523L13.9628 21.2345L15.9231 19.0608ZM11.4607 19.6947L9.50039 21.8684L11.3332 24.1506L13.2936 21.9769L11.4607 19.6947ZM8.78457 22.609L8.16286 23.2984C8.79972 23.6974 9.4393 23.9877 10.0809 24.2236L8.78457 22.609ZM8.82811 21.0876L10.7885 18.914L8.95563 16.6317L6.99528 18.8054L8.82811 21.0876ZM8.33122 15.7979L6.49838 13.5156L4.53802 15.6893L6.3693 18.0259L8.33122 15.7979ZM5.87274 12.7366L4.0399 10.4543L2.07954 12.628L3.91238 14.9102L5.87274 12.7366ZM2.6083 7.09553L4.03873 8.87671L5.99909 6.70302L4.12154 4.36509C3.45046 5.16183 2.96169 6.07214 2.56202 7.0942L2.6083 7.09553ZM10.5043 1.3392C9.71776 1.31669 8.92845 1.40289 8.22817 1.60043L9.34565 2.99192L10.8278 1.3485L10.5043 1.3392ZM18.6142 5.92217L17.6102 7.03532L19.4431 9.31757L20.1604 8.52216C19.7701 7.58667 19.2402 6.70167 18.6142 5.92217ZM15.3053 24.4821L13.9196 22.7566L12.1505 24.7183C13.2112 24.857 14.2781 24.7787 15.3053 24.4821ZM4.60219 19.9333L5.65393 18.7671L3.82109 16.4849L3.05592 17.3333C3.49408 18.2158 4.02437 19.1012 4.60219 19.9333Z" fill="#585858"/>
</svg>
